/* XPM */
static char *xpertmud-16[] = {
/* columns rows colors chars-per-pixel */
"16 16 31 1",
"  c black",
". c #202000",
"X c #2B2B00",
"o c #363616",
"O c #202020",
"+ c gray17",
"@ c gray23",
"# c #400000",
"$ c #550000",
"% c #404000",
"& c #555500",
"* c #515131",
"= c #606000",
"- c gray25",
"; c #4C4C4C",
": c #515151",
"> c #5D5D5D",
", c #606060",
"< c #626262",
"1 c #676767",
"2 c #717171",
"3 c gray49",
"4 c #800000",
"5 c #AA0000",
"6 c red",
"7 c #808000",
"8 c gray51",
"9 c #8E8E8E",
"0 c #A2A2A2",
"q c #C3C3C3",
"w c None",
/* pixels */
"wwwww4www    www",
"wwwww4ww 2001 ww",
"wwwww4ww 0qq9 ww",
"www545$4#0qq9 ww",
"ww6 ww4w 199> ww",
"ww6 wwww <q08 ww",
"ww6  XXw %%<:+ww",
"ww6 %7%wX77Xwwww",
"w --O7  =777Xwww",
"w-qq%7 X77777Xww",
"w-qq*777=%%==  w",
"w-qqqo%&% w%7  w",
"w @3;<w7.7w%7 ww",
" <qqq< &%%% & ww",
"w     w%wwwwwwww",
"wwwwwwwwwwwwwwww"
};
