/* XPM */
static char *xpertmud[] = {
/* columns rows colors chars-per-pixel */
"32 32 8 1",
"  c black",
". c #585858",
"X c red",
"o c #808000",
"O c #808080",
"+ c #C3C3C3",
"@ c gainsboro",
"# c None",
/* pixels */
"################################",
"##########X #######      #######",
"##########X ###### OOOOOO ######",
"##########X ##### O++++++. #####",
"##########X ##### O++++++. #####",
"##########X ##### O++++++. #####",
"#######XXX X #XXX O++++++. #####",
"######X   #X X    O++++++. #####",
"#####X #####X ### O++++++. #####",
"#####X ########### ...... ######",
"#####X ############ #+OO +######",
"#####X ########## #++++++O #####",
"#####X ####  ### #    +++OO ####",
"#####X #   oo ### oooo     #####",
"#####X  ooooo ### oooo #########",
"#####X #  ooo ## oooooo ########",
"####      oo ### ooooooo #######",
"### OOOOO oo ## ooooooooo ######",
"## O++++ ooo ## oooooooooo #####",
"## O++++ ooo   oooooooooooo ####",
"## O++++ ooooooooooooooooo # ###",
"## O+++++ ooooooo     o  o # ###",
"## O++++++ ooo o o ###o #o # ###",
"## O++++++.   #o o####o #o #####",
"### ...... ####o  ####o #o #####",
"#### #+OO +####o oo###o #o #####",
"## #++++++O ###o o o#o ##o #####",
"# #+++++++OO #o ##o # ##o ######",
"##          ##o ################",
"################################",
"################################",
"################################"
};
